<svg width="743" height="171" viewBox="0 0 743 171" fill="none" xmlns="http://www.w3.org/2000/svg">
<path d="M5.50112 138.399C-2.71746 117.371 -2.12952 97.1116 9.99845 78.2566C24.2823 56.0502 54.9717 47.9438 79.6408 59.07C82.9286 60.5528 86.1378 62.2101 89.3694 63.7798C90.9431 61.5906 90.3866 59.5331 90.396 57.6154C90.4607 44.4504 90.59 31.2825 90.3715 18.1209C90.2932 13.4048 92.1409 12.0725 96.5941 12.2712C103.413 12.5754 110.273 12.6508 117.083 12.2624C122.215 11.9697 123.663 13.883 123.639 18.8423C123.466 54.5043 123.526 90.1675 123.518 125.83C123.515 137.829 123.398 149.83 123.601 161.825C123.678 166.321 122.164 168.242 117.53 167.93C113.216 167.639 108.848 167.598 104.541 167.931C100.185 168.268 98.0335 166.465 97.2625 162.341C96.9038 160.422 96.4848 158.435 94.6841 156.496C80.3564 168.634 63.7603 172.853 45.3882 169.588C26.8166 166.287 13.5825 155.882 5.50112 138.399ZM42.2817 135.356C52.8307 143.402 66.7148 144.636 77.3964 138.476C90.128 131.134 95.2749 114.608 89.3689 100.034C83.8802 86.489 68.9993 79.5451 53.7545 83.5461C43.1912 86.3184 36.1583 93.0502 33.6831 103.647C30.9677 115.271 32.5875 126.151 42.2817 135.356Z" fill="black"/>
<path d="M145.042 155.09C125.487 134.782 120.235 106.608 132.544 84.5748C143.521 64.9255 161.465 55.0687 183.269 52.4276C214.784 48.6103 235.209 70.7038 243.891 92.4086C245.647 96.7989 242.902 97.5907 240.101 98.7768C216.799 108.643 193.493 118.497 170.2 128.383C168.714 129.014 166.941 129.248 165.695 131.499C169.893 137.688 175.782 141.589 183.431 142.345C197.927 143.78 210.782 136.046 216.695 122.704C217.229 121.499 217.448 120.052 218.823 119.461C228.095 115.476 237.382 111.523 246.89 107.463C248.257 111.349 247.874 114.465 247.318 117.539C242.537 143.947 222.299 163.956 195.23 168.906C176.463 172.338 159.479 168.921 145.042 155.09ZM200.628 82.9256C189.039 76.6905 176.796 77.8732 166.651 86.2078C158.926 92.5548 155.274 102.151 157.911 110.571C174.271 103.685 190.563 96.8286 206.848 89.9749C206.126 86.2412 203.414 85.0163 200.628 82.9256Z" fill="black"/>
<path d="M629.466 146.566C611.878 120.269 615.251 87.1892 637.675 67.8621C652.033 55.4869 669.354 52.1179 687.711 53.7822C704.204 55.2774 718.923 61.2534 729.442 74.5978C743.799 92.8097 745.71 113.4 737.614 134.47C729.577 155.386 712.672 165.938 691.041 168.892C669.753 171.799 650.279 167.553 634.291 152.107C632.622 150.494 631.209 148.615 629.466 146.566ZM682.739 81.8769C672.123 81.2152 662.801 83.9929 656.44 92.9962C648.94 103.612 648.575 115.19 654.31 126.528C659.723 137.23 669.339 141.495 681.112 141.37C697.377 141.197 709.833 129.251 709.968 112.53C710.105 95.4507 700.379 83.4392 682.739 81.8769Z" fill="black"/>
<path d="M490.883 162.844C491.1 165.798 489.981 166.916 487.409 166.898C479.077 166.838 470.745 166.836 462.413 166.89C458.068 166.918 458.346 163.902 458.346 161.009C458.341 136.179 458.333 111.348 458.334 86.5177C458.334 78.1853 458.457 69.8514 458.327 61.5213C458.266 57.688 459.696 56.0809 463.628 56.3041C467.947 56.5494 472.318 56.6658 476.616 56.2852C481.28 55.8723 483.919 57.4608 484.598 62.1766C484.832 63.7943 485.179 65.4422 486.804 67.0095C493.44 61.1425 500.885 56.6029 509.732 54.8555C527.038 51.4377 543.036 53.6399 555.976 66.7274C565.149 76.0038 568.364 88.0031 568.641 100.563C569.089 120.885 568.715 141.223 568.846 161.553C568.87 165.3 567.825 167.047 563.78 166.934C556.287 166.724 548.78 166.746 541.285 166.935C537.377 167.033 536.059 165.532 536.089 161.651C536.23 143.654 536.15 125.656 536.144 107.658C536.143 105.161 535.983 102.709 535.466 100.224C532.789 87.3686 526.042 81.4778 514.026 81.7478C502.258 82.0121 493.905 89.5237 491.807 101.495C490.239 110.441 491.013 119.442 490.903 128.419C490.763 139.749 490.877 151.083 490.883 162.844Z" fill="black"/>
<path d="M354.75 131.919C356.475 130.096 358.39 130.502 360.18 130.484C365.343 130.432 370.51 130.553 375.67 130.427C381.33 130.289 386.147 129.735 388.456 137.495C390.393 144.005 397.862 144.663 404.088 145.227C407.261 145.514 410.401 144.728 413.388 143.694C417.105 142.407 419.73 139.911 420.059 135.79C420.373 131.848 418.152 129.155 414.955 127.279C408.502 123.494 401.186 122.482 394.026 121.008C384.514 119.049 375.448 116.192 367.256 110.6C351.323 99.7234 351.819 70.2288 370.855 60.308C383.44 53.7491 396.861 52.502 410.662 53.8764C420.372 54.8434 429.719 57.128 437.536 63.4889C444.868 69.4542 448.949 77.1397 449.957 86.5733C450.277 89.5659 449.058 90.5475 446.431 90.5594C438.603 90.5952 430.775 90.5886 422.947 90.6324C420.56 90.6457 419.628 89.3679 418.783 87.2166C415.092 77.8237 398.538 73.9541 390.638 80.4908C385.879 84.4293 386.718 91.3815 392.587 94.5018C398.826 97.819 405.789 98.9277 412.623 100.391C421.612 102.316 430.359 104.926 438.176 110.007C457.693 122.693 457.278 149.885 437.308 161.858C425.71 168.812 412.857 170.191 399.717 169.529C389.465 169.012 379.601 166.778 370.853 160.989C360.571 154.186 354.909 144.751 354.75 131.919Z" fill="black"/>
<path d="M254.464 57.3234C260.384 57.776 266.757 55.2651 271.005 58.5276C275.022 61.6127 275.156 68.0824 277.036 73.0468C283.749 90.7681 290.405 108.511 297.258 126.711C299.432 125.183 299.737 123.38 300.354 121.785C303.36 114.021 306.514 106.308 309.288 98.4619C310.511 95.0008 312.392 93.8463 315.966 94.2867C324.657 95.3577 333.38 96.1721 341.712 97.05C342.853 99.6101 341.685 101.026 341.081 102.486C332.668 122.794 324.158 143.062 315.832 163.406C314.493 166.678 312.614 168.012 309.087 167.923C301.426 167.73 293.756 167.756 286.094 167.897C282.983 167.954 281.309 166.807 280.102 163.882C266.122 130.017 252.025 96.2012 237.963 62.3701C237.393 60.9986 236.662 59.6464 237.357 57.3236C242.742 57.3236 248.354 57.3236 254.464 57.3234Z" fill="black"/>
<path d="M612.786 78.6602C612.787 106.285 612.669 133.411 612.892 160.533C612.934 165.659 611.25 167.236 606.286 166.989C599.147 166.634 591.978 166.809 584.824 166.92C581.454 166.973 580.09 165.695 580.098 162.223C580.178 128.442 580.173 94.6612 580.115 60.8802C580.11 57.7926 581.028 56.2757 584.362 56.3278C592.348 56.4527 600.339 56.4731 608.323 56.3234C611.922 56.256 612.901 57.9151 612.816 61.1876C612.67 66.8416 612.783 72.5023 612.786 78.6602Z" fill="black"/>
<path d="M604.576 41.1479C592.932 46.3481 578.119 38.9316 575.151 26.3335C572.49 15.0364 579.114 3.66202 590.218 0.775547C602.444 -2.40283 614.734 4.4777 617.619 16.1164C620.183 26.4558 615.576 35.5047 604.576 41.1479Z" fill="#FF751F"/>
<path d="M355.323 58.4006C351.352 67.977 347.41 77.1565 343.803 86.4659C342.424 90.0254 340.324 91.3552 336.629 90.9543C329.195 90.1476 321.744 89.4969 314.296 88.8228C311.586 88.5775 310.711 87.0237 311.653 84.7175C316.873 71.9263 322.195 59.1764 327.508 46.4229C328.282 44.5638 329.961 44.2964 331.696 44.4394C339.817 45.1087 347.937 45.7917 356.051 46.5353C358.625 46.7711 359.561 48.1452 358.504 50.6584C357.472 53.1133 356.489 55.5889 355.323 58.4006Z" fill="#FF751F"/>
</svg>
